<?xml version="1.0" encoding="iso-8859-1"?>
<!-- Uploaded to: SVG Repo, www.svgrepo.com, Generator: SVG Repo Mixer Tools -->
<svg fill="#000000" height="800px" width="800px" version="1.1" id="Capa_1" xmlns="http://www.w3.org/2000/svg" xmlns:xlink="http://www.w3.org/1999/xlink" 
	 viewBox="0 0 53 53" xml:space="preserve">
<g>
	<path d="M45.998,7.063c0.013-0.201-0.036-0.402-0.14-0.575c-0.136-0.227-3.015-4.829-13.105-6.139
		c-0.005-0.005-0.005-0.012-0.01-0.017C32.554,0.12,32.283,0,32,0H21c-0.283,0-0.554,0.12-0.743,0.331
		c-0.051,0.057-0.076,0.128-0.112,0.194C10.825,2.008,7.388,6.164,7.218,6.377C7.063,6.571,6.986,6.815,7.002,7.063L8,22.953v15.328
		c0,4.66,2.374,8.879,7.25,12.894l0.021,0.078c0.085,0.323,0.325,0.583,0.642,0.692C16.019,51.982,16.129,52,16.238,52
		c0.216,0,0.429-0.07,0.605-0.204l1.692-1.286l1.745,2.125C20.47,52.866,20.753,53,21.053,53h10.895c0.3,0,0.583-0.134,0.772-0.365
		l1.778-2.166l1.929,1.35C36.597,51.938,36.798,52,37,52c0.118,0,0.236-0.021,0.35-0.063c0.026-0.01,0.048-0.026,0.073-0.038
		l0.013,0.014l0.052-0.048c0.132-0.074,0.243-0.176,0.328-0.299l0.359-0.327C42.703,47.102,45,42.743,45,38.281V22.953L45.998,7.063
		z M43,22v0.886l-0.15,2.394c-0.501,0.171-1.304,0.432-2.347,0.724c-0.138-0.001-0.278,0.023-0.412,0.083
		c-0.026,0.011-0.041,0.034-0.065,0.047c-0.123,0.033-0.243,0.066-0.371,0.1l3.772-10.117L43.056,22H43z M36.383,49.347l-2.029-1.42
		c0.235-0.09,0.435-0.26,0.548-0.494l4.091-8.522L36.383,49.347z M14.224,39.36l3.875,8.073c0.111,0.231,0.307,0.398,0.536,0.489
		l-1.809,1.375L14.224,39.36z M9.944,22l-0.308-4.9l2.776,8.879c-1.002-0.282-1.775-0.533-2.262-0.7L10,22.886V22H9.944z M27.097,2
		c1.362,0,2.61,0.062,3.776,0.162L29.1,19H23.9L22.14,2.277C23.645,2.107,25.282,2,27.097,2z M22.006,20.104
		C22.059,20.614,22.488,21,23,21h7c0.512,0,0.941-0.386,0.994-0.896L32.24,8.27c6.756,0.74,9.688,2.84,10.606,3.679l-5.497,14.746
		c-0.155,0.062-0.379,0.143-0.675,0.233C33.832,27.508,30.307,28,26.5,28c-4.573,0-8.744-0.712-11.809-1.434l-4.538-14.518
		c1.08-0.822,4.274-2.813,10.621-3.655L22.006,20.104z M11.094,27.687l-1.006,2.236c-0.061,0.134-0.09,0.278-0.088,0.422v-3.004
		C10.312,27.445,10.669,27.559,11.094,27.687z M22.105,43.553L20.882,46h-1.253l-7.526-15.68l0.94-2.088
		c0.155,0.04,0.328,0.081,0.491,0.122c0.084,0.036,0.438,0.18,1.102,0.371l-0.312,1.56l9.461,1.892l0.393-1.961l-1.636-0.327
		c1.191,0.069,2.498,0.112,3.959,0.112c1.495,0,2.805-0.045,3.977-0.116l-1.654,0.331l0.393,1.961l9.461-1.892l-0.333-1.664
		c0.569-0.13,1.116-0.26,1.614-0.389l0.94,2.088L33.371,46h-1.253l-1.224-2.447C30.725,43.214,30.379,43,30,43h-7
		C22.621,43,22.275,43.214,22.105,43.553z M41.906,27.687c0.425-0.128,0.782-0.242,1.094-0.346v3.004
		c0.002-0.144-0.027-0.288-0.088-0.422L41.906,27.687z M43.979,7.295l-0.179,2.842c-1.485-1.201-4.831-3.138-11.352-3.852
		l0.411-3.901C40.396,3.455,43.306,6.461,43.979,7.295z M20.158,2.553l0.406,3.856c-6.367,0.837-9.852,2.769-11.358,3.851
		L9.024,7.361C9.883,6.498,13.128,3.737,20.158,2.553z M10,38.281v-7.935c0.002,0.11,0.038,0.217,0.076,0.322
		c-0.066,0.184-0.097,0.382-0.043,0.585l4.276,16.328C11.432,44.611,10,41.55,10,38.281z M31.475,51h-9.949l-1.397-1.701
		l1.977-1.503c0.015-0.012,0.022-0.029,0.036-0.041c0.073-0.062,0.136-0.133,0.189-0.215c0.014-0.022,0.032-0.042,0.045-0.065
		c0.005-0.01,0.014-0.018,0.019-0.028L23.618,45h5.764l1.224,2.447c0.107,0.214,0.288,0.369,0.5,0.461
		c0.072,0.158,0.169,0.304,0.321,0.411l1.428,1L31.475,51z M38.86,47.681l4.11-16.438c0.05-0.2,0.019-0.393-0.046-0.574
		c0.038-0.105,0.074-0.212,0.076-0.323v7.935C43,41.444,41.594,44.595,38.86,47.681z"/>
</g>
</svg>